<?xml version="1.0" encoding="UTF-8" standalone="no"?>
<!DOCTYPE svg PUBLIC "-//W3C//DTD SVG 1.0//EN" "http://www.w3.org/TR/2001/PR-SVG-20010719/DTD/svg10.dtd">
<svg width="23cm" height="23cm" viewBox="-214 60 457 451" xmlns="http://www.w3.org/2000/svg" xmlns:xlink="http://www.w3.org/1999/xlink">
  <g>
    <rect style="fill: #eeecec" x="-212.754" y="81.2162" width="455" height="428.748"/>
    <rect style="fill: none; fill-opacity:0; stroke-width: 2; stroke: #000000" x="-212.754" y="81.2162" width="455" height="428.748"/>
    <rect style="fill: #eeecec" x="-212.754" y="61.2162" width="73.3" height="20"/>
    <rect style="fill: none; fill-opacity:0; stroke-width: 2; stroke: #000000" x="-212.754" y="61.2162" width="73.3" height="20"/>
    <text style="fill: #000000;text-anchor:start;font-size:12.7998;font-family:monospace;font-style:normal;font-weight:normal" x="-210.754" y="76.2162">Thesaurus</text>
  </g>
  <g>
    <rect style="fill: #ffffff" x="-41.5" y="129.5" width="83.6" height="28"/>
    <rect style="fill: none; fill-opacity:0; stroke-width: 2; stroke: #000000" x="-41.5" y="129.5" width="83.6" height="28"/>
    <text style="fill: #000000;text-anchor:middle;font-size:16;font-family:sanserif;font-style:normal;font-weight:700" x="0.3" y="148.5">Concept</text>
    <rect style="fill: #ffffff" x="-41.5" y="157.5" width="83.6" height="8"/>
    <rect style="fill: none; fill-opacity:0; stroke-width: 2; stroke: #000000" x="-41.5" y="157.5" width="83.6" height="8"/>
    <rect style="fill: #ffffff" x="-41.5" y="165.5" width="83.6" height="8"/>
    <rect style="fill: none; fill-opacity:0; stroke-width: 2; stroke: #000000" x="-41.5" y="165.5" width="83.6" height="8"/>
  </g>
  <g>
    <rect style="fill: #ffffff" x="-43.682" y="426.106" width="87" height="28"/>
    <rect style="fill: none; fill-opacity:0; stroke-width: 2; stroke: #000000" x="-43.682" y="426.106" width="87" height="28"/>
    <text style="fill: #000000;text-anchor:middle;font-size:16;font-family:sanserif;font-style:normal;font-weight:700" x="-0.182" y="445.106">Terme</text>
    <rect style="fill: #ffffff" x="-43.682" y="454.106" width="87" height="41"/>
    <rect style="fill: none; fill-opacity:0; stroke-width: 2; stroke: #000000" x="-43.682" y="454.106" width="87" height="41"/>
    <text style="fill: #000000;text-anchor:start;font-size:12.8;font-family:monospace;font-style:normal;font-weight:normal" x="-40.682" y="468.106">+lib_terme</text>
    <text style="fill: #000000;text-anchor:start;font-size:11.2;font-family:sanserif;font-style:italic;font-weight:normal" x="-40.682" y="482.606">ex : voiture</text>
    <rect style="fill: #ffffff" x="-43.682" y="495.106" width="87" height="8"/>
    <rect style="fill: none; fill-opacity:0; stroke-width: 2; stroke: #000000" x="-43.682" y="495.106" width="87" height="8"/>
  </g>
  <g>
    <rect style="fill: #ffffff" x="-174" y="292.75" width="135.9" height="28"/>
    <rect style="fill: none; fill-opacity:0; stroke-width: 2; stroke: #000000" x="-174" y="292.75" width="135.9" height="28"/>
    <text style="fill: #000000;text-anchor:middle;font-size:16;font-family:sanserif;font-style:normal;font-weight:700" x="-106.05" y="311.75">TermeVedette</text>
    <rect style="fill: #ffffff" x="-174" y="320.75" width="135.9" height="8"/>
    <rect style="fill: none; fill-opacity:0; stroke-width: 2; stroke: #000000" x="-174" y="320.75" width="135.9" height="8"/>
    <rect style="fill: #ffffff" x="-174" y="328.75" width="135.9" height="8"/>
    <rect style="fill: none; fill-opacity:0; stroke-width: 2; stroke: #000000" x="-174" y="328.75" width="135.9" height="8"/>
  </g>
  <g>
    <rect style="fill: #ffffff" x="51" y="292.75" width="158.75" height="28"/>
    <rect style="fill: none; fill-opacity:0; stroke-width: 2; stroke: #000000" x="51" y="292.75" width="158.75" height="28"/>
    <text style="fill: #000000;text-anchor:middle;font-size:16;font-family:sanserif;font-style:normal;font-weight:700" x="130.375" y="311.75">TermeSynonyme</text>
    <rect style="fill: #ffffff" x="51" y="320.75" width="158.75" height="8"/>
    <rect style="fill: none; fill-opacity:0; stroke-width: 2; stroke: #000000" x="51" y="320.75" width="158.75" height="8"/>
    <rect style="fill: #ffffff" x="51" y="328.75" width="158.75" height="8"/>
    <rect style="fill: none; fill-opacity:0; stroke-width: 2; stroke: #000000" x="51" y="328.75" width="158.75" height="8"/>
  </g>
  <g>
    <polyline style="fill: none; fill-opacity:0; stroke-width: 2; stroke: #000000" points="-0.182,407.87 -0.182,379 130.375,379 130.375,337.754 "/>
    <polygon style="fill: #ffffff" points="-8.182,407.87 -0.182,423.87 7.818,407.87 "/>
    <polygon style="fill: none; fill-opacity:0; stroke-width: 2; stroke: #000000" points="-8.182,407.87 -0.182,423.87 7.818,407.87 "/>
  </g>
  <g>
    <polyline style="fill: none; fill-opacity:0; stroke-width: 2; stroke: #000000" points="-0.182,407.87 -0.182,379 -106.05,379 -106.05,337.754 "/>
    <polygon style="fill: #ffffff" points="-8.182,407.87 -0.182,423.87 7.818,407.87 "/>
    <polygon style="fill: none; fill-opacity:0; stroke-width: 2; stroke: #000000" points="-8.182,407.87 -0.182,423.87 7.818,407.87 "/>
  </g>
  <g>
    <polyline style="fill: none; fill-opacity:0; stroke-width: 2; stroke: #000000" points="-37.11,314.75 6.25,314.75 6.25,314.75 50.0013,314.75 "/>
    <text style="fill: #000000;text-anchor:middle;font-size:12.7998;font-family:monospace;font-style:normal;font-weight:normal" x="6.25" y="311.75"></text>
    <text style="fill: #000000;text-anchor:start;font-size:12.7998;font-family:monospace;font-style:normal;font-weight:normal" x="-33.11" y="311.75">*</text>
    <text style="fill: #000000;text-anchor:end;font-size:12.7998;font-family:monospace;font-style:normal;font-weight:normal" x="46.0013" y="311.75">*</text>
  </g>
  <g>
    <polyline style="fill: none; fill-opacity:0; stroke-width: 2; stroke: #000000" points="-106.05,291.744 -106.05,230.5 0.3,230.5 0.3,173.5 "/>
    <text style="fill: #000000;text-anchor:middle;font-size:12.7998;font-family:monospace;font-style:normal;font-weight:normal" x="-52.875" y="227.5">décrit</text>
    <polygon style="fill: #000000" points="-27.775,227.5 -27.775,219.5 -19.775,223.5 "/>
    <text style="fill: #000000;text-anchor:start;font-size:12.7998;font-family:monospace;font-style:normal;font-weight:normal" x="-102.05" y="287.744">1</text>
    <text style="fill: #000000;text-anchor:start;font-size:12.7998;font-family:monospace;font-style:normal;font-weight:normal" x="4.3" y="185.5">*</text>
  </g>
  <g>
    <polyline style="fill: none; fill-opacity:0; stroke-width: 2; stroke: #000000" points="130.375,292.75 130.375,230.416 0.3,230.416 0.3,173.5 "/>
    <text style="fill: #000000;text-anchor:middle;font-size:12.7998;font-family:monospace;font-style:normal;font-weight:normal" x="65.3375" y="227.416">décrit par</text>
    <text style="fill: #000000;text-anchor:start;font-size:12.7998;font-family:monospace;font-style:normal;font-weight:normal" x="134.375" y="288.75">*</text>
    <text style="fill: #000000;text-anchor:start;font-size:12.7998;font-family:monospace;font-style:normal;font-weight:normal" x="4.3" y="185.5">*</text>
  </g>
  <g>
    <polyline style="fill: none; fill-opacity:0; stroke-width: 2; stroke: #000000" points="42.1,129.5 38.152,129.5 38.152,99.6826 166.339,99.6826 166.339,143.443 42.1,143.443 42.1,143.5 "/>
    <text style="fill: #000000;text-anchor:middle;font-size:12.7998;font-family:monospace;font-style:normal;font-weight:normal" x="102.245" y="96.6826">spécialise</text>
    <polygon style="fill: #000000" points="142.745,96.6826 142.745,88.6826 150.745,92.6826 "/>
    <text style="fill: #000000;text-anchor:end;font-size:12.7998;font-family:monospace;font-style:normal;font-weight:normal" x="38.1" y="126.5">*</text>
    <text style="fill: #000000;text-anchor:start;font-size:12.7998;font-family:monospace;font-style:normal;font-weight:normal" x="46.1" y="139.5">1</text>
  </g>
  <g>
    <polyline style="fill: none; fill-opacity:0; stroke-width: 2; stroke: #000000" points="-41.5,129.5 -37.862,129.5 -37.862,104.683 -188.713,104.683 -188.713,143.5 -41.5,143.5 "/>
    <text style="fill: #000000;text-anchor:middle;font-size:12.7998;font-family:monospace;font-style:normal;font-weight:normal" x="-113.288" y="101.683">est associé à</text>
    <text style="fill: #000000;text-anchor:start;font-size:12.7998;font-family:monospace;font-style:normal;font-weight:normal" x="-37.5" y="126.5">*</text>
    <text style="fill: #000000;text-anchor:end;font-size:12.7998;font-family:monospace;font-style:normal;font-weight:normal" x="-45.5" y="140.5">*</text>
  </g>
</svg>
