<?xml version="1.0" encoding="UTF-8" standalone="no"?>
<!DOCTYPE svg PUBLIC "-//W3C//DTD SVG 1.0//EN" "http://www.w3.org/TR/2001/PR-SVG-20010719/DTD/svg10.dtd">
<svg width="23cm" height="16cm" viewBox="240 167 457 304" xmlns="http://www.w3.org/2000/svg" xmlns:xlink="http://www.w3.org/1999/xlink">
  <g>
    <rect style="fill: #eeecec" x="242" y="189" width="455" height="281"/>
    <rect style="fill: none; fill-opacity:0; stroke-width: 2; stroke: #000000" x="242" y="189" width="455" height="281"/>
    <rect style="fill: #eeecec" x="242" y="169" width="73.3" height="20"/>
    <rect style="fill: none; fill-opacity:0; stroke-width: 2; stroke: #000000" x="242" y="169" width="73.3" height="20"/>
    <text style="fill: #000000;text-anchor:start;font-size:12.7998;font-family:monospace;font-style:normal;font-weight:normal" x="244" y="184">Thesaurus</text>
  </g>
  <g>
    <rect style="fill: #ffffff" x="402" y="236" width="83.6" height="28"/>
    <rect style="fill: none; fill-opacity:0; stroke-width: 2; stroke: #000000" x="402" y="236" width="83.6" height="28"/>
    <text style="fill: #000000;text-anchor:middle;font-size:16;font-family:sanserif;font-style:normal;font-weight:700" x="443.8" y="255">Concept</text>
    <rect style="fill: #ffffff" x="402" y="264" width="83.6" height="8"/>
    <rect style="fill: none; fill-opacity:0; stroke-width: 2; stroke: #000000" x="402" y="264" width="83.6" height="8"/>
    <rect style="fill: #ffffff" x="402" y="272" width="83.6" height="8"/>
    <rect style="fill: none; fill-opacity:0; stroke-width: 2; stroke: #000000" x="402" y="272" width="83.6" height="8"/>
  </g>
  <g>
    <polyline style="fill: none; fill-opacity:0; stroke-width: 2; stroke: #000000" points="485.6,236 483.188,236 483.188,213.09 615,213.09 615,258.25 485.6,258.25 485.6,280 "/>
    <text style="fill: #000000;text-anchor:middle;font-size:12.7998;font-family:monospace;font-style:normal;font-weight:normal" x="549.094" y="210.09">spécialise</text>
    <polygon style="fill: #000000" points="589.594,210.09 589.594,202.09 597.594,206.09 "/>
    <text style="fill: #000000;text-anchor:end;font-size:12.7998;font-family:monospace;font-style:normal;font-weight:normal" x="481.6" y="233">*</text>
    <text style="fill: #000000;text-anchor:start;font-size:12.7998;font-family:monospace;font-style:normal;font-weight:normal" x="489.6" y="276">1</text>
  </g>
  <g>
    <rect style="fill: #ffffff" x="455.818" y="346.606" width="87" height="28"/>
    <rect style="fill: none; fill-opacity:0; stroke-width: 2; stroke: #000000" x="455.818" y="346.606" width="87" height="28"/>
    <text style="fill: #000000;text-anchor:middle;font-size:16;font-family:sanserif;font-style:normal;font-weight:700" x="499.318" y="365.606">Terme</text>
    <rect style="fill: #ffffff" x="455.818" y="374.606" width="87" height="41"/>
    <rect style="fill: none; fill-opacity:0; stroke-width: 2; stroke: #000000" x="455.818" y="374.606" width="87" height="41"/>
    <text style="fill: #000000;text-anchor:start;font-size:12.8;font-family:monospace;font-style:normal;font-weight:normal" x="458.818" y="388.606">+lib_terme</text>
    <text style="fill: #000000;text-anchor:start;font-size:11.2;font-family:sanserif;font-style:italic;font-weight:normal" x="458.818" y="403.106">ex : voiture</text>
    <rect style="fill: #ffffff" x="455.818" y="415.606" width="87" height="8"/>
    <rect style="fill: none; fill-opacity:0; stroke-width: 2; stroke: #000000" x="455.818" y="415.606" width="87" height="8"/>
  </g>
  <g>
    <polyline style="fill: none; fill-opacity:0; stroke-width: 2; stroke: #000000" points="499.318,345.596 499.318,312.798 443.8,312.798 443.8,280 "/>
    <text style="fill: #000000;text-anchor:middle;font-size:12.7998;font-family:monospace;font-style:normal;font-weight:normal" x="471.559" y="309.798">vedette</text>
    <polygon style="fill: #000000" points="500.509,309.798 500.509,301.798 508.509,305.798 "/>
    <text style="fill: #000000;text-anchor:start;font-size:12.7998;font-family:monospace;font-style:normal;font-weight:normal" x="503.318" y="341.596">1</text>
    <text style="fill: #000000;text-anchor:start;font-size:12.7998;font-family:monospace;font-style:normal;font-weight:normal" x="447.8" y="292">*</text>
  </g>
  <g>
    <polyline style="fill: none; fill-opacity:0; stroke-width: 2; stroke: #000000" points="542.818,384.606 679.948,384.606 679.948,456.09 499.318,456.09 499.318,423.606 "/>
    <text style="fill: #000000;text-anchor:middle;font-size:12.7998;font-family:monospace;font-style:normal;font-weight:normal" x="589.633" y="453.09">est_synonyme_de</text>
    <polygon style="fill: #000000" points="649.383,453.09 649.383,445.09 657.383,449.09 "/>
    <text style="fill: #000000;text-anchor:start;font-size:12.7998;font-family:monospace;font-style:normal;font-weight:normal" x="546.818" y="381.606">*</text>
    <text style="fill: #000000;text-anchor:start;font-size:12.7998;font-family:monospace;font-style:normal;font-weight:normal" x="503.318" y="435.606">*</text>
  </g>
  <g>
    <polyline style="fill: none; fill-opacity:0; stroke-width: 2; stroke: #000000" points="402,236 407.188,236 407.188,218.09 259.948,218.09 259.948,258 400.996,258 "/>
    <text style="fill: #000000;text-anchor:middle;font-size:12.7998;font-family:monospace;font-style:normal;font-weight:normal" x="333.568" y="215.09">est associé à</text>
    <text style="fill: #000000;text-anchor:start;font-size:12.7998;font-family:monospace;font-style:normal;font-weight:normal" x="406" y="233">*</text>
    <text style="fill: #000000;text-anchor:end;font-size:12.7998;font-family:monospace;font-style:normal;font-weight:normal" x="396.996" y="255">*</text>
  </g>
</svg>
